<svg width="121" height="141" viewBox="0 0 121 141" fill="none" xmlns="http://www.w3.org/2000/svg">
<path d="M0.47699 62.757C5.61299 81.039 9.08899 99.786 10.851 118.693C28.416 122.802 46.303 129.343 60.674 140.603C60.666 123.067 60.674 81.754 60.674 81.754C60.674 81.754 50.94 73.661 38.018 69.077C25.985 64.808 13.244 62.38 0.47699 62.757Z" fill="#E74646"/>
<path d="M60.674 79.96C60.674 79.96 43.029 61.821 5.843 60.369L4.405 54.263C4.405 54.263 47.815 56.852 60.674 79.96Z" fill="#F86F53"/>
<path d="M60.674 76.737C60.674 76.737 46.35 55.446 9.53101 51.735L8.35901 45.875C8.35901 45.875 43.517 49.196 60.674 76.737Z" fill="#FA9884"/>
<path d="M120.871 62.758C115.735 81.04 112.259 99.787 110.497 118.694C92.932 122.803 75.045 129.344 60.674 140.604C60.682 123.068 60.674 81.754 60.674 81.754C60.674 81.754 70.408 73.662 83.33 69.078C95.363 64.809 108.104 62.381 120.871 62.758Z" fill="#DD1D1D"/>
<path d="M60.674 79.961C60.674 79.961 78.319 61.822 115.505 60.37L116.943 54.264C116.943 54.264 73.533 56.854 60.674 79.961Z" fill="#F86F53"/>
<path d="M60.674 76.739C60.674 76.739 74.998 55.448 111.818 51.737L112.99 45.877C112.99 45.877 77.83 49.197 60.674 76.739Z" fill="#FA9884"/>
<path d="M47.467 46.55C44.749 46.55 42.538 44.338 42.538 41.62C42.538 38.902 44.749 36.69 47.467 36.69C50.185 36.69 52.397 38.902 52.397 41.62C52.396 44.338 50.185 46.55 47.467 46.55ZM47.467 38.038C45.492 38.038 43.886 39.645 43.886 41.619C43.886 43.594 45.492 45.2 47.467 45.2C49.442 45.2 51.048 43.593 51.048 41.619C51.048 39.645 49.441 38.038 47.467 38.038Z" fill="#FA9884"/>
<path d="M88.36 42.294C84.824 42.294 81.947 39.417 81.947 35.881C81.947 32.345 84.824 29.469 88.36 29.469C91.896 29.469 94.772 32.345 94.772 35.881C94.772 39.417 91.895 42.294 88.36 42.294ZM88.36 30.818C85.568 30.818 83.296 33.09 83.296 35.882C83.296 38.674 85.568 40.946 88.36 40.946C91.152 40.946 93.424 38.674 93.424 35.882C93.423 33.089 91.151 30.818 88.36 30.818Z" fill="#DD1D1D"/>
<path d="M25.264 41.051C23.865 41.051 22.728 39.913 22.728 38.515C22.728 37.116 23.866 35.979 25.264 35.979C26.663 35.979 27.8 37.117 27.8 38.515C27.8 39.914 26.663 41.051 25.264 41.051ZM25.264 37.328C24.609 37.328 24.076 37.861 24.076 38.516C24.076 39.171 24.609 39.703 25.264 39.703C25.919 39.703 26.452 39.17 26.452 38.516C26.452 37.861 25.919 37.328 25.264 37.328Z" fill="#E74646"/>
<path d="M72.113 22.303L69.542 21.203C69.176 21.046 68.91 20.719 68.832 20.329L68.281 17.588C68.083 16.604 66.843 16.275 66.183 17.03L64.342 19.135C64.08 19.435 63.687 19.587 63.291 19.54L60.513 19.217C59.516 19.101 58.82 20.178 59.334 21.04L60.767 23.441C60.971 23.783 60.994 24.204 60.828 24.566L59.663 27.108C59.245 28.02 60.054 29.016 61.032 28.793L63.759 28.172C64.148 28.084 64.555 28.192 64.848 28.462L66.905 30.356C67.643 31.036 68.84 30.574 68.93 29.574L69.182 26.789C69.218 26.392 69.447 26.039 69.794 25.843L72.231 24.472C73.105 23.978 73.036 22.697 72.113 22.303Z" fill="#FA9884"/>
<path d="M40.483 2.749L36.488 3.908C35.919 4.073 35.305 3.94799 34.846 3.57199L31.627 0.938994C30.472 -0.00600573 28.735 0.783997 28.688 2.275L28.556 6.43199C28.537 7.02399 28.228 7.56899 27.729 7.88999L24.23 10.138C22.974 10.944 23.188 12.841 24.592 13.347L28.505 14.757C29.062 14.958 29.485 15.42 29.636 15.993L30.692 20.016C31.071 21.459 32.94 21.842 33.855 20.663L36.405 17.378C36.769 16.91 37.339 16.651 37.93 16.684L42.082 16.923C43.572 17.008 44.513 15.349 43.675 14.114L41.338 10.673C41.005 10.183 40.935 9.55999 41.15 9.00799L42.66 5.13299C43.204 3.74099 41.916 2.333 40.483 2.749Z" fill="#DD1D1D"/>
<path d="M63.059 54.785L60.992 55.192C60.697 55.25 60.393 55.159 60.179 54.949L58.672 53.477C58.131 52.949 57.22 53.27 57.129 54.02L56.877 56.112C56.841 56.41 56.661 56.671 56.395 56.811L54.529 57.789C53.86 58.14 53.883 59.106 54.569 59.424L56.48 60.31C56.752 60.436 56.945 60.688 56.995 60.984L57.349 63.061C57.476 63.806 58.402 64.082 58.916 63.528L60.349 61.984C60.553 61.764 60.853 61.659 61.15 61.702L63.235 62.008C63.983 62.118 64.532 61.322 64.164 60.662L63.139 58.822C62.993 58.56 62.985 58.243 63.118 57.974L64.053 56.086C64.388 55.407 63.801 54.639 63.059 54.785Z" fill="#E74646"/>
<path d="M114.508 21.328L111.818 19.655C111.435 19.417 111.193 19.005 111.173 18.554L111.026 15.39C110.973 14.255 109.642 13.673 108.773 14.405L106.351 16.446C106.006 16.737 105.54 16.839 105.105 16.72L102.05 15.882C100.954 15.581 99.989 16.668 100.417 17.72L101.61 20.654C101.78 21.072 101.733 21.547 101.485 21.924L99.744 24.57C99.119 25.519 99.854 26.773 100.988 26.691L104.147 26.463C104.597 26.431 105.034 26.622 105.316 26.974L107.295 29.447C108.005 30.334 109.424 30.023 109.697 28.919L110.457 25.844C110.565 25.406 110.882 25.049 111.304 24.89L114.268 23.773C115.33 23.375 115.473 21.929 114.508 21.328Z" fill="#E74646"/>
<path d="M72.847 39.747C72.847 40.427 72.296 40.979 71.615 40.979C70.935 40.979 70.383 40.428 70.383 39.747C70.383 39.067 70.934 38.515 71.615 38.515C72.296 38.516 72.847 39.067 72.847 39.747Z" fill="#E74646"/>
<path d="M16.702 20.128C16.702 20.808 16.151 21.36 15.47 21.36C14.789 21.36 14.238 20.809 14.238 20.128C14.238 19.448 14.789 18.896 15.47 18.896C16.151 18.896 16.702 19.448 16.702 20.128Z" fill="#DD1D1D"/>
<path d="M89.66 16.614C91.0589 16.614 92.193 15.4799 92.193 14.081C92.193 12.6821 91.0589 11.548 89.66 11.548C88.2611 11.548 87.127 12.6821 87.127 14.081C87.127 15.4799 88.2611 16.614 89.66 16.614Z" fill="#DD1D1D"/>
<path d="M42.642 27.162C43.7261 27.162 44.605 26.2831 44.605 25.199C44.605 24.1149 43.7261 23.236 42.642 23.236C41.5578 23.236 40.679 24.1149 40.679 25.199C40.679 26.2831 41.5578 27.162 42.642 27.162Z" fill="#FA9884"/>
</svg>
