<svg width="406" height="320" viewBox="0 0 406 320" fill="none" xmlns="http://www.w3.org/2000/svg">
<path d="M326.55 62.33C313.25 73.27 298.63 82.95 282.33 88.48C266.02 94.01 247.83 95.14 231.66 89.23C213.49 82.58 199.62 67.98 183.95 56.63C168.02 45.09 149.49 36.64 129.92 34.65C110.35 32.66 89.72 37.56 74.55 50.07C50.73 69.7 44.23 105.1 52.73 134.78C61.81 166.49 86.52 193.31 117.38 204.94" stroke="white" stroke-miterlimit="10" stroke-linecap="round" stroke-linejoin="round" stroke-dasharray="8 24 8 24 8 24"/>
<path d="M132.3 95.82C132.69 90.58 132.76 84.9999 130.1 80.4699C127.43 75.9099 122.35 73.1799 117.17 72.1299C111.99 71.0799 106.64 71.4999 101.37 71.9199C103.86 83.2999 112.84 93.02 132.3 95.82Z" fill="#1CA33A"/>
<path d="M141.14 106.74C134.28 97.91 133.07 85.06 138.18 75.11C139.85 71.86 142.61 68.66 146.25 68.5C153.26 80.62 152.03 96.98 141.14 106.74Z" fill="#1CA33A"/>
<path d="M146 113.27C141.07 108.63 134.43 105.84 127.67 105.59C120.9 105.34 114.07 107.62 108.81 111.88C117.26 119.12 129.72 121.35 146 113.27Z" fill="#1CA33A"/>
<path d="M155.42 127.9C151.81 121.64 150.86 113.91 152.82 106.96C154.78 100.01 159.66 93.93 166.01 90.49C171.44 102.61 168.76 117.9 155.42 127.9Z" fill="#1CA33A"/>
<path d="M160.09 138.59C156.76 131.99 150.17 127.15 142.88 125.93C135.59 124.71 127.78 127.16 122.49 132.31C131.17 138.7 142.57 141.28 160.09 138.59Z" fill="#1CA33A"/>
<path d="M165.77 150.96C165.34 144.29 166.08 137.39 169.13 131.45C172.18 125.51 177.8 120.65 184.41 119.65C186.1 126.21 185.39 133.35 182.45 139.45C179.51 145.55 174.36 150.55 165.77 150.96Z" fill="#1CA33A"/>
<path d="M171.1 163.58C167.63 157.32 161.01 152.91 153.9 152.13C146.79 151.34 139.36 154.2 134.61 159.55C143.5 166.47 155.62 169.03 171.1 163.58Z" fill="#1CA33A"/>
<path d="M125.8 88.73C158.98 124.78 179.47 172.28 182.92 221.15" stroke="#126943" stroke-miterlimit="10" stroke-linecap="round"/>
<path d="M70.81 173.61C65.99 166.66 58.16 161.87 49.77 160.75C41.38 159.63 32.57 162.18 26.09 167.62C35.51 177.1 50.54 180.55 70.81 173.61Z" fill="#1CA33A"/>
<path d="M84.67 180.23C78.77 175.99 74.51 169.53 72.95 162.43C71.39 155.34 72.54 147.68 76.12 141.36C81.11 146.38 85.86 151.87 88.48 158.45C91.09 165.03 91.27 172.92 84.67 180.23Z" fill="#1CA33A"/>
<path d="M78.2 176.91C71.4 175.94 64.26 177.59 58.57 181.43C52.88 185.28 48.7 191.29 47.06 197.96C53.6 198.33 60.32 197.19 66.02 193.97C71.73 190.76 76.32 185.34 78.2 176.91Z" fill="#1CA33A"/>
<path d="M104.62 191.38C99.3 185.92 96.31 178.26 96.51 170.64C96.71 163.02 100.1 155.53 105.7 150.36C114.27 162.16 116 178.58 104.62 191.38Z" fill="#1CA33A"/>
<path d="M99.76 188.27C96.1 185.41 90.91 184.95 86.5 186.42C82.09 187.89 78.41 191.09 75.63 194.82C72.85 198.55 70.89 202.82 69.05 207.08C81.56 207.53 94.04 200.45 99.76 188.27Z" fill="#1CA33A"/>
<path d="M119.61 201.5C115.75 195.35 114.48 187.63 116.16 180.57C117.84 173.51 122.45 167.19 128.66 163.43C132.08 169.71 133.34 177.14 132.18 184.19C131.02 191.25 127.44 197.88 119.61 201.5Z" fill="#1CA33A"/>
<path d="M132.57 214.24C127.74 209.64 120.4 208.33 113.88 209.77C107.37 211.2 101.61 215.06 96.74 219.62C107.34 226.08 122.08 224.79 132.57 214.24Z" fill="#1CA33A"/>
<path d="M143.35 226.45C121.75 198.1 89.88 177.75 55.08 170.07" stroke="#126943" stroke-miterlimit="10" stroke-linecap="round"/>
<path d="M165.86 189.15C166.08 168.92 157.68 148.73 143.17 134.63C128.66 120.53 108.23 112.72 86.79 113.72C85.47 134.41 93.92 155.52 109.15 169.58C124.38 183.65 146.09 190.38 165.86 189.15Z" fill="#1F918C"/>
<path d="M96.88 121.94C124.11 141.45 146.79 167.27 162.61 196.79" stroke="#166673" stroke-miterlimit="10" stroke-linecap="round"/>
<path d="M119.05 122.71C118.86 128.29 118.66 133.88 118.47 139.46" stroke="#166673" stroke-miterlimit="10" stroke-linecap="round"/>
<path d="M144.04 139.1C143.48 146.63 141.83 154.08 139.17 161.14" stroke="#166673" stroke-miterlimit="10" stroke-linecap="round"/>
<path d="M160.04 167.27C159.08 172.26 156.7 176.97 153.26 180.7" stroke="#166673" stroke-miterlimit="10" stroke-linecap="round"/>
<path d="M94.14 132.5C99.7 134.39 105.71 134.94 111.51 134.08" stroke="#166673" stroke-miterlimit="10" stroke-linecap="round"/>
<path d="M105.49 158.71C113.96 158.13 122.32 155.93 129.98 152.27" stroke="#166673" stroke-miterlimit="10" stroke-linecap="round"/>
<path d="M124.09 178.63C132.48 178.85 140.24 176.77 147.55 172.64" stroke="#166673" stroke-miterlimit="10" stroke-linecap="round"/>
<path d="M257.58 163.83C245.01 147.97 239.3 126.87 242.15 106.83C245 86.79 256.36 68.12 273.93 55.78C287.64 71.33 293.89 93.19 290.45 113.63C287 134.08 273.96 152.7 257.58 163.83Z" fill="#1F918C"/>
<path d="M270.97 68.4501C261.38 100.54 259.26 134.84 264.82 167.87" stroke="#166673" stroke-miterlimit="10" stroke-linecap="round"/>
<path d="M253.91 82.6401C257.48 86.9401 261.05 91.2301 264.62 95.5301" stroke="#166673" stroke-miterlimit="10" stroke-linecap="round"/>
<path d="M244.18 110.9C249.23 116.51 255.09 121.39 261.53 125.34" stroke="#166673" stroke-miterlimit="10" stroke-linecap="round"/>
<path d="M248.78 142.96C252.59 146.32 257.35 148.58 262.36 149.42" stroke="#166673" stroke-miterlimit="10" stroke-linecap="round"/>
<path d="M279.6 75.1301C276.36 80.0301 271.95 84.1401 266.83 87.0201" stroke="#166673" stroke-miterlimit="10" stroke-linecap="round"/>
<path d="M286.67 102.8C279.62 107.53 271.66 110.91 263.36 112.7" stroke="#166673" stroke-miterlimit="10" stroke-linecap="round"/>
<path d="M284.16 129.94C277.66 135.25 270.25 138.36 261.94 139.57" stroke="#166673" stroke-miterlimit="10" stroke-linecap="round"/>
<path d="M329.13 105.06C329.92 97.78 334.01 90.93 340.03 86.78C346.06 82.63 353.92 81.25 361 83.1C355.73 95.27 343.12 103.91 329.13 105.06Z" fill="#1CA33A"/>
<path d="M324.13 111.56C329.93 101.72 329.21 88.43 322.39 79.27C318 83.4 315.3 89.29 315.03 95.31C314.76 101.35 316.92 107.45 324.13 111.56Z" fill="#1CA33A"/>
<path d="M317.53 121.77C321.33 116.13 327.65 112.26 334.4 111.43C341.15 110.6 348.21 112.84 353.26 117.39C343.72 125.63 329.39 127.85 317.53 121.77Z" fill="#1CA33A"/>
<path d="M310.86 130.86C314.33 124.8 315.17 117.29 313.13 110.61C311.08 103.93 306.18 98.18 299.9 95.1C295.8 107.01 299.04 121.13 310.86 130.86Z" fill="#1CA33A"/>
<path d="M306.77 139.25C311.39 133.81 318.3 130.39 325.43 130C332.56 129.61 339.8 132.27 344.98 137.17C334.2 145.02 319.13 146.5 306.77 139.25Z" fill="#1CA33A"/>
<path d="M301.67 148.12C303.69 141.39 302.67 133.82 298.96 127.86C295.25 121.9 288.88 117.66 281.95 116.52C280.63 128.9 287.33 141.77 301.67 148.12Z" fill="#1CA33A"/>
<path d="M297.47 160C301.31 154.24 307.69 150.24 314.55 149.29C321.41 148.34 328.63 150.47 333.89 154.98C324.09 162.76 310.57 165.6 297.47 160Z" fill="#1CA33A"/>
<path d="M294.42 169.58C295.34 163.23 293.65 156.55 289.83 151.4C286.01 146.25 280.09 142.71 273.75 141.76C273.14 147.77 274.63 153.97 277.91 159.04C281.18 164.11 286.23 168.01 294.42 169.58Z" fill="#1CA33A"/>
<path d="M290.59 182.13C293.68 176.5 299 172.13 305.13 170.19C311.26 168.25 318.12 168.77 323.89 171.6C315.77 180.16 303.37 184.44 290.59 182.13Z" fill="#1CA33A"/>
<path d="M333.46 100.58C307.71 128.8 291.33 165.44 287.47 203.45" stroke="#126943" stroke-miterlimit="10" stroke-linecap="round"/>
<path d="M294.5 208.16C299.38 188.52 312.59 171.1 330.19 161.12C347.79 151.13 369.52 148.72 390.02 155.08C386.09 175.44 372.6 193.73 354.31 203.5C336.03 213.27 313.32 214.32 294.5 208.16Z" fill="#1F918C"/>
<path d="M378.19 160.48C346.93 172.5 318.48 191.77 295.73 216.36" stroke="#166673" stroke-miterlimit="10" stroke-linecap="round"/>
<path d="M356.54 155.65C355.32 161.1 354.1 166.55 352.88 172.01" stroke="#166673" stroke-miterlimit="10" stroke-linecap="round"/>
<path d="M328.23 165.21C326.88 172.64 326.59 180.26 327.39 187.77" stroke="#166673" stroke-miterlimit="10" stroke-linecap="round"/>
<path d="M305.65 188.44C305.32 193.51 306.44 198.66 308.83 203.14" stroke="#166673" stroke-miterlimit="10" stroke-linecap="round"/>
<path d="M378.18 171.4C372.33 171.83 366.37 170.85 360.97 168.56" stroke="#166673" stroke-miterlimit="10" stroke-linecap="round"/>
<path d="M360.6 193.9C352.54 191.21 345.01 186.97 338.52 181.49" stroke="#166673" stroke-miterlimit="10" stroke-linecap="round"/>
<path d="M337.57 208.5C329.39 206.6 322.41 202.63 316.37 196.79" stroke="#166673" stroke-miterlimit="10" stroke-linecap="round"/>
<path d="M82.46 300.28C127.996 300.28 164.91 293.193 164.91 284.45C164.91 275.707 127.996 268.62 82.46 268.62C36.9241 268.62 0.00999832 275.707 0.00999832 284.45C0.00999832 293.193 36.9241 300.28 82.46 300.28Z" fill="#5E96D6"/>
<path d="M73.76 291.42C75.24 292.79 79.72 292.77 82.53 294.16C102.28 286.2 119.05 279.64 137.93 271.76C140.05 265.31 141.08 258.27 139.28 251.72C137.47 245.17 132.38 239.25 126.3 237.07C107.01 242.43 87.73 247.8 68.44 253.16C69.9 265.01 71.36 276.85 73.76 291.42Z" fill="#F7AA36"/>
<path d="M15 288.77C20.17 279.98 20.39 268.77 16.65 260.09C36.48 259.93 56.32 260.95 76.02 263.12C79.08 263.46 82.23 263.85 84.94 265.24C91.26 268.48 93.36 276.81 90.41 282.99C87.46 289.17 80.5 293.09 74.06 293.64C54.23 290.59 34.13 289.13 15 288.77Z" fill="#FEEDE3"/>
<path d="M88.21 268.96C68.4 268.86 48.6 268.75 28.79 268.65C48.59 269.58 68.38 270.52 88.18 271.45C87.85 270.74 87.53 270.02 88.21 268.96Z" fill="#DBB9AB"/>
<path d="M91.71 274.61C76.24 274.3 60.77 273.99 45.3 273.68C60.61 274.69 75.92 275.71 91.23 276.72C91.23 276.02 91.24 275.32 91.71 274.61Z" fill="#DBB9AB"/>
<path d="M91.56 279.97C79.62 279.65 67.69 279.34 55.75 279.02C67.43 279.62 79.1 280.53 90.73 281.73C90.77 281.15 90.82 280.56 91.56 279.97Z" fill="#DBB9AB"/>
<path d="M88.34 284.85C67.74 284.25 47.15 283.64 26.55 283.04C46.69 284.29 66.83 285.54 86.97 286.79C87.22 286.25 87.47 285.72 88.34 284.85Z" fill="#DBB9AB"/>
<path d="M12.71 256.83C34.62 256.48 56.55 257.38 78.76 259.19C81.96 259.45 85.03 260.66 87.34 262.76C91.86 266.87 94.41 272.95 93.72 278.85C93.03 284.77 89.13 290.2 83.94 293.4C81.34 295.01 78.21 295.68 75.11 295.46C54.22 293.97 33.33 292.47 12.33 290.77C12.33 289.22 12.33 287.67 13.31 285.62C32.75 287.06 52.19 288.5 72.51 289.94C79.61 290.44 86.29 286.05 87.7 279.48C87.83 278.86 87.92 278.23 87.95 277.59C87.99 276.96 87.97 276.33 87.91 275.7C87.26 269.01 81.1 263.99 73.97 263.79L13.13 262.09C13.11 260.64 13.1 259.18 12.71 256.83Z" fill="#FFBF46"/>
<path d="M131.32 231.94C130.72 235.29 129.46 238.48 128.2 241.65C117.7 245.76 106.91 249.62 95.95 253.19C94.58 253.64 93.2 254.08 91.82 254.52C90.6 254.91 89.38 255.29 88.16 255.67C86.82 256.09 85.47 256.51 84.12 256.92C79.07 258.45 73.98 259.93 68.88 261.33C67.41 259.24 66.39 257.33 65.38 255.41C67.96 243.82 68.02 234.35 66.01 225.32C84.94 221.93 103.86 218.54 122.78 215.16C126.03 216.33 128.92 218.85 130.36 221.93C131.79 225.02 131.91 228.59 131.32 231.94Z" fill="#3878E8"/>
<path d="M91.85 241.58C91.87 246.49 90.57 251.39 88.16 255.67C86.82 256.09 85.47 256.51 84.12 256.92C86.53 252.13 88.02 246.93 87.93 241.73C87.81 235.48 85.41 229.29 81.28 224.59C83.3 224.45 84.39 224.23 85.48 224.01C89.59 228.87 91.83 235.21 91.85 241.58Z" fill="#FFBF46"/>
<path d="M99.11 240.08C99.12 244.62 98.02 249.15 95.95 253.19C94.58 253.64 93.2 254.08 91.82 254.52C93.97 249.98 95.28 245.1 95.19 240.23C95.07 233.98 92.67 227.79 88.54 223.09C90.56 222.95 91.65 222.73 92.74 222.51C96.85 227.37 99.09 233.71 99.11 240.08Z" fill="#FFBF46"/>
<path d="M9.45 255.3C14.28 247.4 14.48 237.33 10.98 229.54C29.47 229.4 47.97 230.31 66.34 232.26C69.2 232.56 72.13 232.91 74.65 234.16C80.54 237.07 82.5 244.55 79.75 250.1C77 255.65 70.51 259.17 64.51 259.66C46.03 256.93 27.29 255.62 9.45 255.3Z" fill="#FEEDE3"/>
<path d="M77.72 237.51C64.18 237.42 50.64 237.32 37.1 237.23C50.63 238.07 64.16 238.91 77.69 239.75C77.47 239.1 77.25 238.46 77.72 237.51Z" fill="#DBB9AB"/>
<path d="M80.98 242.58C62.57 242.3 44.17 242.02 25.76 241.74C43.97 242.65 62.19 243.56 80.4 244.47C80.41 243.85 80.42 243.22 80.98 242.58Z" fill="#DBB9AB"/>
<path d="M80.84 247.39C67.01 247.11 53.19 246.82 39.36 246.54C52.89 247.08 66.4 247.89 79.88 248.98C79.93 248.45 79.98 247.92 80.84 247.39Z" fill="#DBB9AB"/>
<path d="M77.83 251.78C60.23 251.24 42.62 250.7 25.02 250.15C42.23 251.27 59.45 252.39 76.66 253.52C76.88 253.04 77.09 252.56 77.83 251.78Z" fill="#DBB9AB"/>
<path d="M7.31 226.61C27.74 226.3 48.19 227.1 68.9 228.73C71.88 228.96 74.75 230.05 76.9 231.94C81.12 235.63 83.49 241.09 82.85 246.39C82.21 251.71 78.57 256.58 73.73 259.46C71.31 260.9 68.39 261.51 65.5 261.31C46.02 259.97 26.54 258.62 6.95 257.1C6.95 255.71 6.95 254.32 7.86 252.47C25.99 253.76 44.12 255.06 63.06 256.35C69.68 256.8 75.91 252.86 77.22 246.95C77.34 246.39 77.42 245.83 77.46 245.25C77.49 244.68 77.48 244.12 77.42 243.55C76.81 237.55 71.07 233.03 64.42 232.85L7.68 231.33C7.68 230.04 7.67 228.73 7.31 226.61Z" fill="#3C97FE"/>
<path d="M128.11 204.08C128.13 209.69 125.57 215.06 121.8 220.1C106.25 223.6 90.69 227.09 75.25 230.4C63.81 214.97 45.49 209.53 32.5 203.18C31.76 202.82 31.04 202.46 30.34 202.09C26.65 200.16 22.96 198.22 20.05 195.98C38.55 193.55 57.04 191.12 75.41 188.67C89.67 189.34 103.94 190.01 118.91 190.37C119.26 190.38 119.6 190.39 119.95 190.4C125.07 192.7 128.08 198.47 128.11 204.08Z" fill="#C42D97"/>
<path d="M101.1 218.55C98.38 219.18 95.65 219.8 92.93 220.43C94.57 215.6 94.02 209.9 91.38 205.73C94.07 205.22 96.76 204.71 99.85 204.41C102.52 208.4 103.14 213.7 101.1 218.55Z" fill="#F7AA36"/>
<path d="M118.91 190.37C102.19 195.03 85.04 198.15 67.75 199.67L55.97 204.63C48.13 205.33 40.19 204.82 32.5 203.18C31.76 202.82 31.04 202.46 30.34 202.09C26.65 200.16 22.96 198.22 20.05 195.98C38.55 193.55 57.04 191.12 75.41 188.67C89.67 189.34 103.94 190.01 118.91 190.37Z" fill="#F74DB3"/>
<path d="M84.53 194.87C75.86 194.26 67.18 193.66 58.51 193.05C52.8 193.64 47.59 194.24 42.42 195.09C51.48 195.3 62.16 196.18 71.11 196.8C75.89 196.19 79.43 195.73 84.53 194.87Z" fill="#FEEDE3"/>
<path d="M20.88 225.01C25.26 217.11 25.44 207.04 22.27 199.25C39.04 199.11 55.82 200.02 72.47 201.97C75.06 202.27 77.72 202.62 80.01 203.87C85.35 206.78 87.13 214.26 84.63 219.81C82.13 225.36 76.25 228.88 70.81 229.37C54.05 226.64 37.06 225.33 20.88 225.01Z" fill="#FEEDE3"/>
<path d="M82.79 207.22C66.86 207.13 50.93 207.03 35.01 206.94C50.93 207.78 66.85 208.62 82.77 209.46C82.5 208.81 82.24 208.17 82.79 207.22Z" fill="#DBB9AB"/>
<path d="M85.75 212.29C73.17 212.01 60.59 211.73 48.01 211.45C60.46 212.36 72.91 213.27 85.36 214.18C85.36 213.56 85.37 212.93 85.75 212.29Z" fill="#DBB9AB"/>
<path d="M85.62 217.1C69.29 216.82 52.95 216.53 36.62 216.25C52.61 216.79 68.57 217.6 84.49 218.69C84.55 218.16 84.6 217.63 85.62 217.1Z" fill="#DBB9AB"/>
<path d="M82.89 221.49C73.03 220.95 63.17 220.41 53.31 219.86C62.95 220.98 72.59 222.1 82.24 223.23C82.36 222.75 82.48 222.27 82.89 221.49Z" fill="#DBB9AB"/>
<path d="M18.94 196.33C37.47 196.02 56.01 196.82 74.8 198.45C77.51 198.68 80.1 199.77 82.06 201.66C85.88 205.35 88.03 210.81 87.45 216.11C86.87 221.43 83.57 226.3 79.18 229.18C76.98 230.62 74.34 231.23 71.72 231.03C54.06 229.69 36.39 228.34 18.63 226.82C18.63 225.43 18.63 224.04 19.46 222.19C35.9 223.48 52.34 224.78 69.52 226.07C75.53 226.52 81.18 222.58 82.36 216.67C82.47 216.11 82.54 215.55 82.57 214.97C82.6 214.4 82.59 213.84 82.54 213.27C81.99 207.27 76.78 202.75 70.75 202.57L19.3 201.05C19.28 199.75 19.27 198.44 18.94 196.33Z" fill="#EA33AA"/>
<path d="M222.6 306.99C279.215 306.99 325.11 297.588 325.11 285.99C325.11 274.392 279.215 264.99 222.6 264.99C165.985 264.99 120.09 274.392 120.09 285.99C120.09 297.588 165.985 306.99 222.6 306.99Z" fill="#5E96D6"/>
<path d="M217.99 285.44C232.45 285.55 246.86 288.15 261.31 287.44C275.76 286.74 290.96 282.08 299.9 270.71C310.56 257.15 309.6 237.56 304.03 220.45C274.02 219.54 244.01 218.62 214.36 216.45C211.68 217.8 208.8 218.73 205.44 220.1C205.19 221.15 203.74 221.41 202.75 221.01C201.76 220.61 200.98 219.78 199.99 219.33C198.83 218.81 197.43 218.87 196.33 219.51C195.23 220.15 194.46 221.32 194.18 222.16C182.56 218.94 170.33 217.91 158.57 219.51C154.1 226.61 150.43 234.2 147.65 242.11C167.31 254.64 186.46 267.97 205.03 282.06" fill="#0D409E"/>
<path d="M185.11 136.43C182.83 133.44 180.21 130.71 177.45 128C172.02 131.26 167.89 136.38 164.88 141.95C161.87 147.52 159.88 153.58 157.9 159.6C157.36 161.24 156.82 162.98 157.22 164.66C157.57 166.16 158.63 167.38 159.69 168.5C163.54 172.57 167.91 176.14 172.67 179.11C181.5 167.18 186.34 152.35 185.11 136.43Z" fill="#E74646"/>
<path d="M307.75 232.79C293.9 226.11 277.24 225.53 262.96 231.24C255.18 234.36 247.88 239.29 239.53 239.99C232.69 240.56 225.86 238.15 220.04 234.5C214.22 230.85 209.27 226 204.36 221.2C205.01 217.13 207.12 213.24 209.95 209.98C188.72 188.43 176.77 159.09 175.69 129.24C189.36 117.55 206.55 108.8 224.8 104.3C243.57 106.78 262.07 114.78 276.91 127.96C291.34 169.11 303.23 195.04 307.75 232.79Z" fill="#DD1D1D"/>
<path d="M232.63 258.55C210.61 248.8 188.6 239.05 166.58 229.3C158.64 225.79 150.55 222.23 141.91 221.33C133.28 220.44 123.86 222.64 118.07 229.1C111.84 236.04 111.03 246.8 114.67 255.39C118.31 263.98 125.76 270.52 134.06 274.76C142.36 279 151.55 281.19 160.67 283.13C182.46 287.76 204.48 291.18 226.49 294.6C229.44 283.07 232.39 271.56 232.63 258.55Z" fill="#0750B5"/>
<path d="M280.46 309.5C278.6 312.42 276.07 314.9 273.01 316.58C264.98 320.98 254.19 319.4 248.19 313.2C247.14 312.12 246.31 310.86 245.6 309.53C245.5 309.34 245.39 309.13 245.28 308.94C241.94 302.67 238.27 296.58 234.3 290.69C241.95 286.67 249.42 282.34 260.04 276.54C265.3 278.3 270.3 280.87 275.02 284.14C278.4 286.48 280.83 289.73 282.14 293.33C284.05 298.54 283.65 304.5 280.46 309.5Z" fill="#14133B"/>
<path d="M280.46 309.5C278.6 312.42 276.07 314.9 273.01 316.58C264.98 320.98 254.19 319.4 248.19 313.2C247.14 312.12 246.31 310.86 245.6 309.53C245.5 309.34 245.39 309.13 245.28 308.94C253.23 313.38 263.38 314 271.27 309.49C277.13 306.13 281.07 299.89 282.15 293.32C284.05 298.54 283.65 304.5 280.46 309.5Z" fill="#515D82"/>
<path d="M178.21 302.68C167.45 307.14 156.87 312.03 146.5 317.35C146.37 317.42 146.23 317.49 146.09 317.55C139.47 320.71 131.34 318.87 127.22 312.77C126.86 312.24 126.54 311.69 126.25 311.12C123.43 305.43 124.02 298.52 126.41 292.64C126.62 292.12 126.85 291.6 127.09 291.09C130.74 283.25 138.12 277.92 146.53 276.46C147.7 276.26 148.88 276.13 150.07 276.08C156.3 275.83 162.76 275.7 169.21 275.81C173.42 287.23 175.82 294.96 178.21 302.68Z" fill="#14133B"/>
<path d="M146.09 317.55C139.47 320.71 131.34 318.87 127.22 312.77C126.86 312.24 126.54 311.69 126.25 311.12C123.43 305.43 124.02 298.52 126.41 292.64C126.62 292.12 126.85 291.6 127.09 291.09C130.74 283.25 138.12 277.92 146.53 276.46C142.16 278.82 138.1 281.64 134.89 285.4C129.34 291.89 127.02 301.93 131.73 309.05C134.92 313.88 140.29 316.24 146.09 317.55Z" fill="#515D82"/>
<path d="M180.93 311.92C212.31 304.11 244.04 295.84 272.09 279.9C281.85 274.35 291.49 267.46 296.39 257.44C301.29 247.42 299.84 233.63 290.52 227.37C284.42 223.28 276.3 223.17 269.23 225.25C262.16 227.33 255.87 231.33 249.55 235.09C222.13 251.42 192.43 264.01 162.16 272.32C161.77 287.08 168.32 301.87 180.93 311.92Z" fill="#065CBD"/>
<path d="M165.51 86.7199C164.26 84.6299 161.95 83.2199 159.52 83.0599C157.09 82.8999 154.61 83.9999 153.1 85.9099C151.31 88.1699 150.95 91.3299 151.6 94.1399C152.38 97.5399 154.56 100.6 157.52 102.45C160.48 104.3 164.18 104.93 167.6 104.59C166.79 99.3299 169.29 93.0399 165.51 86.7199Z" fill="#EF9281"/>
<path d="M231.03 117.72C229.65 124.51 226.81 130.86 222.04 135.84C220.3 137.66 218.18 139.33 215.69 139.66C213.42 139.96 211.14 139.09 209.3 137.71C209.07 137.54 208.85 137.36 208.63 137.17C206.68 135.48 205.26 133.29 203.86 131.13C203.24 130.16 202.59 129.06 202.82 127.94C203.02 127 203.78 126.31 204.5 125.68C213.02 118.28 221.54 110.87 231.68 100.06C232.33 105.88 232.21 111.96 231.03 117.72Z" fill="#FFBD9A"/>
<path d="M231.03 117.72C229.36 121.27 227.15 124.57 224.49 127.47C220.32 132.02 215.06 135.53 209.3 137.71C209.07 137.54 208.85 137.36 208.63 137.17C206.68 135.48 205.26 133.29 203.86 131.13C203.24 130.16 202.59 129.06 202.82 127.94C203.02 127 203.78 126.31 204.5 125.68C213.02 118.28 221.54 110.87 231.68 100.06C232.33 105.88 232.21 111.96 231.03 117.72Z" fill="#EF9281"/>
<path d="M249.85 67.56C249.47 75.89 246.03 83.73 241.8 92.13C226.65 91.99 211.5 92.85 196.47 94.69L169.19 93.72C160.37 88.83 152.76 81.77 147.25 73.33C146.91 72.83 146.59 72.32 146.28 71.81C145.09 69.87 143.97 67.68 144.34 65.44C144.71 63.2 147.29 61.27 149.27 62.38C145.19 57.73 142.8 51.79 142.37 45.69C142.23 43.75 142.29 41.75 143.04 39.95C143.78 38.16 145.3 36.59 147.21 36.23C149.01 35.88 151.08 36.86 151.69 38.57C150.13 33.46 148.21 27.73 150.32 22.66C151.15 20.67 152.59 18.92 154.47 17.87C158.96 15.35 164.59 17.23 169.18 19.56C173.77 21.9 178.59 24.75 183.69 24.03C181.71 22.67 181.91 19.31 183.75 17.88C185.59 16.45 188.27 16.64 190.4 17.57C192.54 18.5 194.32 20.07 196.28 21.33C201.33 24.61 207.39 25.86 213.3 26.96C219.22 28.07 225.28 29.16 230.49 32.18C232.01 33.06 233.44 34.15 234.71 35.39L234.72 35.4C237.81 38.42 239.91 42.38 239.8 46.64C246.83 50.19 250.22 59.23 249.85 67.56Z" fill="#14133B"/>
<path d="M234.71 35.39C231.01 33.22 226.39 32.16 222.05 31.69C214.75 30.9 206.91 30.96 200.78 26.9C199.51 26.06 198.33 25.05 196.95 24.4C195.57 23.74 193.88 23.49 192.54 24.22C191.19 24.95 190.5 26.89 191.76 28.72C184.93 29.33 177.96 28.25 171.64 25.6C168.74 24.38 165.69 22.79 162.6 23.44C158.9 24.21 156.51 28.1 156.22 31.87C155.93 35.65 157.27 39.34 158.59 42.88C155.83 40.39 151 41.48 148.82 44.5C146.65 47.52 146.75 51.73 148.14 55.18C149.54 58.63 152.04 61.5 154.49 64.3C151.16 64.07 148.31 67.09 147.55 70.34C147.32 71.32 147.23 72.32 147.25 73.33C146.91 72.83 146.59 72.32 146.28 71.81C145.09 69.87 143.97 67.68 144.34 65.44C144.71 63.2 147.29 61.27 149.27 62.38C145.19 57.73 142.8 51.79 142.37 45.69C142.23 43.75 142.29 41.75 143.04 39.95C143.78 38.16 145.3 36.59 147.21 36.23C149.01 35.88 151.08 36.86 151.69 38.57C150.13 33.46 148.21 27.73 150.32 22.66C151.15 20.67 152.59 18.92 154.47 17.87C158.96 15.35 164.59 17.23 169.18 19.56C173.77 21.9 178.59 24.75 183.69 24.03C181.71 22.67 181.91 19.31 183.75 17.88C185.59 16.45 188.27 16.64 190.4 17.57C192.54 18.5 194.32 20.07 196.28 21.33C201.33 24.61 207.39 25.86 213.3 26.96C219.22 28.07 225.28 29.16 230.49 32.18C232.01 33.06 233.44 34.15 234.71 35.39Z" fill="#2C245C"/>
<path d="M248.35 97.08C246.09 101.59 239.97 103.65 235.4 101.51C230.84 110.04 225.74 117.72 218.74 123.32C211.73 128.92 202.63 132.27 193.74 131.09C180.72 129.37 170.5 118.31 165.89 106.02C161.77 95.04 161.3 83.12 161.27 71.34C161.26 69.94 161.26 68.54 161.26 67.14C173.54 71.32 187.23 68.9 197.52 61.53C196.76 63.09 196.47 64.8 196.74 66.49C197 68.17 197.93 69.85 199.48 70.56C200.95 71.23 202.67 70.94 204.22 70.52C210.62 68.82 216.52 65.29 221.05 60.47C220.41 69.2 222.95 77.64 227.68 84.6C228.8 86.25 230.05 87.82 231.41 89.29C233.25 84.39 239.43 82.02 243.99 84.19C248.55 86.36 250.62 92.56 248.35 97.08Z" fill="#FFBD9A"/>
<path d="M227.68 84.6C222.73 80.99 219.15 75.45 217.87 69.22C211.49 75.07 200.69 77 196.37 73.68C194.57 72.29 192.9 70.09 193.72 67.71C183.98 73.22 171.98 74.48 161.27 71.34C161.26 69.94 161.26 68.54 161.26 67.14C173.54 71.32 187.23 68.9 197.52 61.53C196.76 63.09 196.47 64.8 196.74 66.49C197 68.17 197.93 69.85 199.48 70.56C200.95 71.23 202.67 70.94 204.22 70.52C210.62 68.82 216.52 65.29 221.05 60.47C220.41 69.2 222.95 77.64 227.68 84.6Z" fill="#EF9281"/>
<path d="M198.05 81.0399C199.38 77.4799 203.45 75.1799 207.19 75.8699C210.93 76.5699 213.9 80.1799 213.85 83.9799C212.37 81.4299 209.73 79.5899 206.83 79.0799C203.93 78.5699 200.82 79.3999 198.05 81.0399Z" fill="#14133B"/>
<path d="M180.11 82.1599C179.16 80.0399 177.53 78.1799 175.42 77.1999C173.31 76.2199 170.72 76.2199 168.73 77.4199C166.74 78.6199 165.53 81.0999 166.03 83.3699C167.74 81.3999 170.23 80.1199 172.83 79.8899C175.44 79.6599 178.12 80.4699 180.11 82.1599Z" fill="#14133B"/>
<path d="M186.67 99.21C186.33 101.71 187.08 104.33 188.67 106.28" stroke="#C44547" stroke-width="2" stroke-miterlimit="10" stroke-linecap="round" stroke-linejoin="round"/>
<path d="M190.4 115.67C193.25 116.81 196.51 116.87 199.4 115.84C202.29 114.81 204.78 112.7 206.26 110.01" stroke="#C44547" stroke-width="2" stroke-miterlimit="10" stroke-linecap="round" stroke-linejoin="round"/>
<path d="M178.166 96.681C179.422 96.53 180.622 97.929 180.847 99.804C181.072 101.679 180.236 103.322 178.981 103.472C177.725 103.623 176.525 102.224 176.3 100.349C176.074 98.474 176.91 96.831 178.166 96.681Z" fill="#14133B"/>
<path d="M203.536 95.8329C204.792 95.6819 205.992 97.0799 206.217 98.9559C206.442 100.831 205.606 102.474 204.351 102.624C203.095 102.775 201.895 101.376 201.67 99.501C201.445 97.626 202.281 95.9829 203.536 95.8329Z" fill="#14133B"/>
<path d="M285.76 170.76C290.1 185.99 292.77 201.69 293.31 217.87C281.74 214.99 270.69 210.03 260.84 203.32C261.28 195.6 260.89 187.83 259.67 180.2C268.41 179.1 277.07 177.34 285.76 170.76Z" fill="#EF9281"/>
<path d="M253.47 195.05C268.58 193.44 283.09 186.65 293.44 175.94C290.17 162.59 285.7 147.61 280.7 133.96C277.78 125.97 269.64 121.08 261.23 122.38C261.14 122.39 261.05 122.41 260.96 122.42C252.4 123.78 246.16 131.23 246.04 139.9C245.8 158.21 247.79 175.38 253.47 195.05Z" fill="#E74646"/>
<path d="M242.45 200.74C247.24 210.35 253.19 219.4 260.11 227.61C264.38 232.68 269.76 237.78 276.39 237.94C280.78 238.04 285.03 235.83 287.95 232.55C290.87 229.27 292.55 225.03 293.31 220.71C293.98 216.91 293.91 212.72 291.77 209.51C290.32 207.34 288.09 205.85 285.91 204.41C273.93 196.5 261.95 188.59 249.97 180.68C247.86 187.8 245.75 194.91 242.45 200.74Z" fill="#FFBD9A"/>
<path d="M129.73 187.74C130.28 197.53 131.62 207.27 133.71 216.84C134.74 221.55 136.1 226.47 139.53 229.86C143.87 234.14 150.88 234.97 156.6 232.85C162.32 230.74 166.83 226.1 169.95 220.86C173.07 215.62 174.96 209.76 176.83 203.95C163.24 196.04 148.22 190.62 129.73 187.74Z" fill="#F7A98B"/>
<path d="M156.94 201.24C159.12 205.87 160.81 210.73 161.97 215.72" stroke="#ED8C74" stroke-miterlimit="10" stroke-linecap="round"/>
<path d="M162.6 171.87C165.25 162.5 173.81 156.01 182.6 151.82C196.53 145.19 212.58 142.63 228.59 145.51C230.92 162.39 233.26 179.26 235.94 196.12C233.62 197.13 231.3 198.13 228.98 199.14C220.55 191.55 210.35 186.12 199.75 182.08C189.15 178.03 178.1 175.31 162.6 171.87Z" fill="white"/>
<path d="M163.93 172.32C164.4 163.55 161.44 154.64 155.81 147.89C150.18 141.15 141.94 136.64 133.36 135.92C135.27 141.36 137.19 146.79 139.12 152.29C146.74 157.09 153.94 162.55 163.93 172.32Z" fill="#E1EDF2"/>
<path d="M164.17 173.57C163.29 165.03 159.29 156.84 153.1 150.9C146.91 144.96 138.57 141.29 129.92 140.84C128.31 144.11 126.7 147.38 125.52 152.46C135.46 162.59 145.4 172.72 155.34 182.85C157.4 179.73 160.18 177.1 164.17 173.57Z" fill="white"/>
<path d="M232.15 201C216.96 200.04 201.46 205.62 190.37 216.05C190.25 216.07 190.14 216.08 190.02 216.1C187.84 216.39 186.14 216.51 184.59 216.57C183.96 216.6 183.35 216.61 182.74 216.63C182.64 216.44 182.53 216.26 182.42 216.08C178.84 209.97 172.73 205.55 165.89 203.59C158.84 201.57 151.07 202.19 144.42 205.29C136.7 186.38 129.17 167.97 121.65 149.55C137.23 149.43 152.4 156.87 160.24 169.31C160.32 169.42 160.39 169.54 160.46 169.65C162.11 170.35 163.86 170.71 165.72 170.9C166.16 170.94 166.61 170.98 167.06 171C167.11 170.89 167.15 170.78 167.21 170.67C169.08 167.24 173.43 163.72 179.46 160.73C190.28 155.35 206.5 151.66 223.38 153.16C225.33 164.68 227.46 176.18 229.76 188.4C230.54 192.51 231.33 196.7 232.15 201Z" fill="#FFBF46"/>
<path d="M184.59 216.57C183.96 216.6 183.35 216.61 182.74 216.63C182.64 216.44 182.53 216.26 182.42 216.08C178.84 209.97 172.73 205.55 165.89 203.59C158.84 201.57 151.07 202.19 144.42 205.29C136.7 186.38 129.17 167.97 121.65 149.55C137.23 149.43 152.4 156.87 160.24 169.31C160.32 169.42 160.39 169.54 160.46 169.65C162.11 170.35 163.86 170.71 165.72 170.9C167.48 174.64 169.13 178.28 170.78 181.92C175.92 193.26 181.06 204.64 184.59 216.57Z" fill="#F7AA36"/>
<path d="M229.76 188.4C226.26 178.41 223.39 168.2 221.16 157.85C206.9 154.74 192.47 155.93 179.46 160.73C190.28 155.35 206.5 151.66 223.38 153.16C225.33 164.68 227.46 176.18 229.76 188.4Z" fill="#FFDB80"/>
<path d="M190.02 216.1C186.96 216.51 184.85 216.57 182.74 216.63C182.64 216.44 182.53 216.26 182.42 216.08C175.08 200.78 167.74 185.49 160.39 170.2C160.34 169.9 160.29 169.6 160.24 169.31C160.32 169.42 160.39 169.54 160.46 169.65C162.5 170.51 164.69 170.87 167.06 171C167.11 170.89 167.15 170.78 167.21 170.67C174.53 185.62 182.25 200.85 190.02 216.1Z" fill="#FFDB80"/>
<path d="M223.14 171.69C218.92 171.78 214.48 171.92 210.84 174.06C209.77 174.69 208.77 175.52 208.26 176.64C207.75 177.77 207.84 179.23 208.73 180.09C209.54 180.87 210.78 180.98 211.9 181.05C217.26 181.37 222.63 181.69 227.99 182.02C227.64 178.7 226.51 175.45 223.14 171.69Z" fill="#F7AA36"/>
<path d="M211.78 187.95C210.94 188.44 210.11 189 209.52 189.78C208.93 190.56 208.62 191.59 208.88 192.53C209.13 193.4 209.84 194.07 210.64 194.48C211.44 194.89 212.34 195.07 213.31 194.99C212.07 196.44 212.37 198.78 213.6 200.23C214.83 201.68 216.76 202.36 218.65 202.6C217.87 198.2 217.33 193.77 217.04 189.31C215.4 189.39 213.74 189.09 211.78 187.95Z" fill="#F7AA36"/>
<path d="M251.01 182.28C251.01 182.28 249.86 171.9 243.4 167.1C239.74 164.38 235.5 161.96 230.95 162.58C231.4 165.41 231.68 168.01 232.2 171.2C225.54 171 218.95 170.54 212.65 172.74C211.23 173.24 209.78 173.91 208.93 175.15C208.08 176.39 208.11 178.33 209.34 179.19C209.99 179.64 210.83 179.71 211.62 179.76C218.02 180.17 224.41 180.59 230.78 181.57C226.85 184.89 221.77 186.82 216.63 186.95C215.17 186.99 213.68 186.88 212.27 187.28C210.86 187.68 209.51 188.7 209.26 190.14C208.91 192.14 210.78 193.87 212.78 194.73C212.11 196.03 212.21 197.69 213.01 198.91C213.81 200.13 215.3 200.87 216.92 201.26C216.21 202.43 216.68 204.03 217.66 204.98C218.64 205.93 220 206.37 221.33 206.69C229.08 208.56 237.53 207.37 244.64 203.79C247.58 196.49 251.01 182.28 251.01 182.28Z" fill="#FFBD9A"/>
<path d="M213.56 195.22C219.47 196.42 225.72 195.98 231.4 193.94" stroke="#C44547" stroke-width="2" stroke-miterlimit="10" stroke-linecap="round" stroke-linejoin="round"/>
<path d="M217.34 202.47C222.15 203.94 227.53 203.45 232 201.14" stroke="#C44547" stroke-width="2" stroke-miterlimit="10" stroke-linecap="round" stroke-linejoin="round"/>
<path d="M144.52 174.28C145.63 174.92 146.49 176.02 146.78 177.27C147.07 178.52 146.77 179.91 145.94 180.89C144.73 182.32 142.71 182.7 140.86 182.98C139.7 183.16 138.54 183.34 137.86 183.35C140.03 186.84 143.9 189.21 148.3 189.81C149.5 189.7 150.73 189.77 151.85 190.21C152.97 190.65 153.96 191.5 154.39 192.62C154.83 193.74 154.63 195.13 153.81 196.33C154.9 197.55 155.19 199.43 154.52 200.92C153.85 202.41 152.27 203.45 150.63 203.46C149.1 199.04 146.25 195.17 142.93 191.88C139.61 188.59 135.81 185.82 132.03 183.06C133.31 181.62 134.16 179.81 134.47 177.91C137.5 177.29 140.51 176.65 144.52 174.28Z" fill="#EB8328"/>
<path d="M124.79 176.61C124.81 177.27 124.86 177.93 124.93 178.6C125.15 180.5 126.7 181.99 128.6 182.19C133.43 182.69 138.33 182.54 143.18 181.77C145.11 181.46 146.56 179.84 146.68 177.88C146.68 177.86 146.68 177.83 146.68 177.81C146.81 175.67 145.28 173.76 143.16 173.43C138.48 172.7 133.74 172.36 129.06 172.24C126.65 172.18 124.71 174.19 124.79 176.61Z" fill="#FFBD9A"/>
<path d="M128.88 181.91C127.74 185.17 127.7 188.8 128.78 192.08C129.08 193 129.49 193.92 130.14 194.63C130.8 195.35 131.75 195.84 132.72 195.77C132.24 197.46 132.61 199.06 133.21 200.58C133.69 201.81 134.35 203.01 135.34 203.87C136.34 204.73 137.74 205.21 139.01 204.87C139.48 206.59 139.96 208.24 140.87 209.66C141.78 211.08 143.19 212.28 144.87 212.52C146.98 212.83 148.98 211.62 150.77 210.47C152.23 209.53 153.76 208.51 154.49 206.94C155.23 205.37 154.76 203.1 153.12 202.54C154.31 200.91 154.27 197.95 152.65 196.25C153.75 195.47 153.74 193.82 153.48 192.5C153.27 191.45 152.96 190.36 152.23 189.57C151.01 188.25 148.97 188.12 147.18 188.3C145.39 188.48 143.53 188.88 141.83 188.3C139.52 186.49 137.45 184.52 135.57 182.25C133.41 182.16 131.23 182.06 128.88 181.91Z" fill="#FFBD9A"/>
<path d="M133.72 196.24C139.32 198.77 145.92 198.98 151.67 196.82" stroke="#C44547" stroke-width="2" stroke-miterlimit="10" stroke-linecap="round" stroke-linejoin="round"/>
<path d="M140.02 205.38C144.2 206.06 148.59 205.38 152.36 203.47" stroke="#C44547" stroke-width="2" stroke-miterlimit="10" stroke-linecap="round" stroke-linejoin="round"/>
<path d="M285.29 295.51C285.29 288.24 302.16 281.4 337.78 281.4C373.4 281.4 402.28 287.3 402.28 294.57C402.28 301.84 373.4 307.74 337.78 307.74C302.16 307.74 285.29 302.78 285.29 295.51Z" fill="#5E96D6"/>
<path d="M390.53 253.43C396.85 263.77 396.38 278.06 389.85 287.9C381.67 293.52 373.77 297.72 365.4 302.5C364.08 289.82 362.13 278.01 360.81 265.33C360.73 264.51 360.66 263.62 361.11 262.94C361.56 262.26 362.4 262 363.17 261.79C371.49 259.51 379.81 257.24 390.53 253.43Z" fill="#C42D97"/>
<path d="M296.18 299.27C301.12 289.34 300.82 276.98 296.52 267.61C317.07 266.49 337.68 266.66 358.2 268.11C361.39 268.34 364.67 268.62 367.54 270.02C374.24 273.29 376.82 282.36 374.05 289.31C371.28 296.26 364.26 300.9 357.61 301.82C336.93 299.4 316.02 298.76 296.18 299.27Z" fill="#FEEDE3"/>
<path d="M371.12 273.96C351.59 274.74 332.06 275.53 312.53 276.31C332.09 276.44 351.65 276.57 371.2 276.7C370.86 275.93 370.5 275.16 371.12 273.96Z" fill="#DBB9AB"/>
<path d="M375.02 280.02C359.58 280.39 344.15 280.75 328.71 281.12C344.02 281.53 359.33 281.95 374.64 282.36C374.61 281.59 374.59 280.83 375.02 280.02Z" fill="#DBB9AB"/>
<path d="M375.12 285.93C355.08 286.5 335.05 287.08 315.01 287.65C334.63 287.41 354.25 287.51 373.82 287.94C373.86 287.28 373.9 286.63 375.12 285.93Z" fill="#DBB9AB"/>
<path d="M372.01 291.46C359.89 291.35 347.78 291.24 335.66 291.13C347.54 291.96 359.42 292.79 371.3 293.62C371.42 293.03 371.54 292.43 372.01 291.46Z" fill="#DBB9AB"/>
<path d="M292.27 264.2C314.97 262.77 337.74 262.71 360.85 263.65C364.18 263.78 367.42 264.98 369.91 267.18C374.79 271.49 377.72 278.06 377.29 284.59C376.86 291.14 373.07 297.31 367.85 301.09C365.23 302.98 362.02 303.88 358.8 303.78C337.08 303.13 315.35 302.48 293.49 301.61C293.42 299.91 293.34 298.2 294.26 295.89C314.48 296.55 334.71 297.21 355.83 297.83C363.22 298.04 369.93 292.89 371.07 285.58C371.18 284.89 371.24 284.19 371.24 283.49C371.25 282.79 371.2 282.1 371.11 281.41C370.12 274.08 363.49 268.83 356.09 268.96L292.94 269.99C292.87 268.38 292.79 266.78 292.27 264.2Z" fill="#EA33AA"/>
<path d="M368.84 263.7C370.68 263.94 372.51 264.18 374.6 264.41C381.49 261.52 388.39 258.63 395.48 256.09C399.51 251.04 402.41 244.75 402.27 238.21C402.14 231.67 398.5 225.01 392.65 222.73C383.38 223.57 374.12 224.41 364.85 225.26C367.21 236.99 368.85 248.89 368.84 263.7Z" fill="#3878E8"/>
<path d="M297.88 262.14C303.42 253.49 303.27 242.73 298.73 234.58C321.14 233.56 343.59 233.65 365.93 234.87C369.4 235.06 372.97 235.29 376.08 236.51C383.33 239.34 386 247.23 382.88 253.28C379.76 259.33 372.04 263.39 364.78 264.21C342.28 262.16 319.51 261.64 297.88 262.14Z" fill="#FEEDE3"/>
<path d="M379.92 239.93C363.51 240.47 347.1 241.01 330.68 241.55C347.11 241.81 363.54 242.06 379.98 242.32C379.69 241.64 379.4 240.97 379.92 239.93Z" fill="#DBB9AB"/>
<path d="M384.08 245.19C361.76 245.76 339.44 246.33 317.13 246.9C339.24 247.01 361.35 247.12 383.46 247.23C383.44 246.57 383.43 245.9 384.08 245.19Z" fill="#DBB9AB"/>
<path d="M384.1 250.33C367.33 250.68 350.57 251.03 333.8 251.38C350.22 251.32 366.63 251.55 383 252.07C383.03 251.51 383.07 250.94 384.1 250.33Z" fill="#DBB9AB"/>
<path d="M380.62 255.16C359.26 255.41 337.91 255.66 316.55 255.92C337.46 256.3 358.36 256.69 379.27 257.07C379.52 256.55 379.76 256.02 380.62 255.16Z" fill="#DBB9AB"/>
<path d="M294.17 231.63C318.92 230.33 343.74 230.22 368.9 230.98C372.53 231.09 376.04 232.12 378.72 234.03C383.97 237.77 387.06 243.48 386.49 249.17C385.92 254.87 381.7 260.25 375.95 263.55C373.07 265.2 369.56 265.99 366.05 265.91C342.39 265.4 318.73 264.88 294.93 264.18C294.88 262.7 294.82 261.21 295.85 259.2C317.87 259.73 339.9 260.25 362.9 260.74C370.95 260.91 378.34 256.41 379.69 250.05C379.82 249.45 379.89 248.84 379.91 248.23C379.93 247.62 379.89 247.02 379.8 246.42C378.83 240.04 371.69 235.49 363.63 235.62L294.8 236.67C294.75 235.26 294.69 233.87 294.17 231.63Z" fill="#3C97FE"/>
<path d="M388.11 226.46C381.27 228.81 376.2 230.44 369.21 232.64C368.7 232.13 368.18 231.63 367.66 231.14C351.46 216.25 326.26 216.17 307.28 205.93C304.37 204.36 301.06 203.41 297.8 202.01C306.83 200.42 316.14 198.49 326.23 196.85C345.51 196.8 364.79 196.74 384.57 196.82H384.89C390.39 199.18 394.42 204.84 394.96 210.96C395.49 217.07 392.52 223.38 388.11 226.46Z" fill="#F7AA36"/>
<path d="M388.11 226.46C381.27 228.81 376.2 230.44 369.21 232.64C368.7 232.13 368.18 231.63 367.66 231.14C369.47 229.99 371.19 228.67 372.68 227.1C375.65 223.97 377.68 219.61 377.17 215.27C376.77 211.76 374.74 208.58 372.06 206.36C369.39 204.15 366.12 202.81 362.78 202C370.04 200.27 377.3 198.54 384.56 196.81H384.88C390.38 199.17 394.41 204.83 394.95 210.95C395.49 217.07 392.52 223.38 388.11 226.46Z" fill="#F0942B"/>
<path d="M301.29 230.06C306.34 222.09 306.17 212.2 301.99 204.72C322.5 203.72 343.07 203.74 363.53 204.8C366.71 204.96 369.98 205.17 372.83 206.28C379.48 208.86 381.95 216.11 379.11 221.68C376.27 227.25 369.21 231.01 362.57 231.78C341.94 229.95 321.1 229.54 301.29 230.06Z" fill="#FEEDE3"/>
<path d="M376.35 209.41C355.85 210.18 335.35 210.95 314.85 211.73C335.37 211.69 355.89 211.65 376.4 211.61C376.05 210.99 375.69 210.37 376.35 209.41Z" fill="#DBB9AB"/>
<path d="M380.18 214.24C364.16 214.64 348.14 215.04 332.12 215.44C348 215.66 363.88 215.89 379.76 216.11C379.73 215.5 379.71 214.89 380.18 214.24Z" fill="#DBB9AB"/>
<path d="M380.21 218.96C367.85 219.2 355.49 219.44 343.12 219.69C355.23 219.71 367.33 220 379.41 220.56C379.43 220.04 379.46 219.52 380.21 218.96Z" fill="#DBB9AB"/>
<path d="M377.04 223.41C355.71 223.78 334.37 224.14 313.04 224.51C333.93 224.73 354.81 224.95 375.7 225.18C375.94 224.69 376.18 224.21 377.04 223.41Z" fill="#DBB9AB"/>
<path d="M297.8 202.01C320.46 200.75 343.19 200.58 366.23 201.21C369.55 201.3 372.77 202.24 375.23 203.99C380.05 207.41 382.9 212.66 382.39 217.89C381.88 223.14 378.04 228.09 372.78 231.14C370.15 232.67 366.93 233.4 363.72 233.34C342.06 232.94 320.38 232.52 298.59 231.95C298.54 230.59 298.48 229.22 299.42 227.36C319.59 227.78 339.76 228.21 360.83 228.59C368.2 228.72 374.96 224.56 376.18 218.71C376.3 218.16 376.36 217.6 376.38 217.04C376.39 216.48 376.36 215.93 376.27 215.38C375.36 209.52 368.81 205.36 361.43 205.49L298.41 206.65C298.35 205.35 298.28 204.07 297.8 202.01Z" fill="#FFBF46"/>
<path d="M44.23 4.66994C46.59 5.07994 47.5 5.83994 47.17 8.79994C47.61 5.94994 48.27 5.30995 51.23 5.45995C48.01 4.68995 48.08 3.64993 48.4 0.929932C47.89 3.65993 46.89 4.66994 44.23 4.66994Z" fill="white"/>
<path d="M6.23 132.68C8.59 133.09 9.5 133.85 9.17 136.81C9.61 133.96 10.27 133.33 13.23 133.47C10.01 132.7 10.08 131.66 10.4 128.94C9.89 131.67 8.89 132.68 6.23 132.68Z" fill="white"/>
<path d="M244.73 12.5499C247.09 12.9599 248 13.7199 247.67 16.6799C248.11 13.8299 248.77 13.1899 251.73 13.3399C248.51 12.5699 248.58 11.5299 248.9 8.80994C248.39 11.5399 247.39 12.5499 244.73 12.5499Z" fill="white"/>
<path d="M384.33 121.44C386.71 121.14 387.8 121.59 388.35 124.52C387.93 121.67 388.38 120.87 391.25 120.13C387.95 120.34 387.71 119.32 387.21 116.63C387.53 119.39 386.87 120.66 384.33 121.44Z" fill="white"/>
<path d="M398.81 206.44C401.19 206.14 402.28 206.59 402.83 209.52C402.41 206.67 402.86 205.87 405.73 205.13C402.43 205.34 402.19 204.32 401.69 201.63C402.02 204.39 401.36 205.66 398.81 206.44Z" fill="white"/>
</svg>
